<svg xmlns="http://www.w3.org/2000/svg" width="220" height="260" viewBox="0 0 220 260"><rect width="220" height="260" fill="#fff1f7"/><circle cx="110" cy="86" r="45" fill="#9f1239"/><path d="M34 238c11-55 47-82 76-82s65 27 76 82" fill="#db2777"/><path d="M66 94c8-48 80-48 88 0 4 26 12 42 28 58-34 3-47-12-72-12s-38 15-72 12c16-16 24-32 28-58z" fill="#831843" opacity=".55"/><circle cx="94" cy="84" r="6" fill="#fff"/><circle cx="126" cy="84" r="6" fill="#fff"/><path d="M90 115c14 10 26 10 40 0" stroke="#fff" stroke-width="7" fill="none" stroke-linecap="round"/></svg>
